<svg width="120" height="120" viewBox="0 0 120 120" fill="none" xmlns="http://www.w3.org/2000/svg">
<rect width="120" height="120" fill="#E5E5E5"/>
<g clip-path="url(#clip0_2_3)">
<rect width="1440" height="1764" transform="translate(-965 -896)" fill="white"/>
<g clip-path="url(#clip1_2_3)">
<path d="M0.402562 64.0078C-0.118992 68.3819 2.5125 72.4191 6.28094 73.0245C10.049 73.6299 13.5268 70.5751 14.0483 66.2012C14.5701 61.8271 11.938 57.7904 8.16993 57.1847C4.40168 56.5791 0.924116 59.6344 0.402562 64.0078ZM91.051 102.864C90.9452 102.945 90.9128 103.072 90.9103 103.201C90.9174 103.269 90.9176 103.337 90.9468 103.407C90.9677 103.475 90.9876 103.545 91.0216 103.614C91.2841 104.166 91.6336 104.69 91.9342 105.252C92.086 105.532 92.2295 105.823 92.3428 106.139C92.4525 106.452 92.5429 106.802 92.4975 107.177C92.4728 107.362 92.4095 107.544 92.3141 107.697C92.2151 107.845 92.0955 107.969 91.9652 108.064C91.7051 108.253 91.4205 108.363 91.1376 108.429C90.5739 108.582 89.9812 108.612 89.4132 108.489C88.8505 108.372 88.3109 108.138 87.8175 107.817C88.2085 108.265 89.1993 112.048 89.1071 112.689C89.0137 113.341 88.826 116.169 88.5448 116.713C88.2639 117.257 87.1393 118.454 86.8579 118.998C86.5768 119.542 88.9328 119.868 90.8941 118.998C92.8559 118.128 92.762 116.931 92.762 116.931C92.762 116.931 93.513 115.155 94.1678 115.191C94.4137 115.204 94.5756 114.443 94.531 114.252C94.4737 114.008 94.1678 113.885 94.1678 113.885C94.1678 113.885 94.3551 112.144 95.1051 111.383C95.8545 110.622 96.4439 110.679 96.4439 110.679L96.7918 109.901L96.4168 109.099L96.5459 108.616L97.1522 108.626L97.4477 107.902L96.9791 107.141L97.1959 105.445L96.6043 104.255C96.6043 104.255 93.6053 103.225 92.6684 102.789C92.5826 102.75 92.4685 102.66 92.3321 102.528C92.1551 102.541 91.9792 102.557 91.8051 102.586C91.5367 102.633 91.2434 102.684 91.051 102.864ZM70.1538 36.9221C70.2156 36.9941 70.1315 36.8711 69.9547 36.624L69.918 36.636C70.0316 36.7749 70.1141 36.8763 70.1538 36.9221ZM65.3745 32.1911C64.5312 32.4358 62.698 33.4963 62.698 33.4963C62.698 33.4963 60.6653 34.149 59.3299 34.312C57.9945 34.4753 55.6441 33.8224 55.6441 33.8224C55.6441 33.8224 54.4101 32.4358 53.5666 33.741C52.7232 35.0464 52.3717 36.1061 51.7393 36.9221C51.1066 37.7386 51.4579 39.9574 51.3174 41.3365C51.177 42.7153 52.0204 42.1501 52.442 42.3923C52.8638 42.6339 53.3558 40.8316 53.9179 40.7127C54.4804 40.5944 54.0671 39.6967 55.6441 39.7784C57.2213 39.86 58.4163 39.3704 58.4163 39.3704C58.4163 39.3704 61.3682 41.4026 63.4768 40.7127C65.5853 40.0231 66.4287 37.721 67.5533 37.4033C67.8957 37.3066 68.8066 37.0045 69.918 36.636C69.0266 35.5429 66.1226 31.9737 65.3745 32.1911ZM102.321 20.9864C101.115 21.1805 99.9637 21.6763 98.8245 22.1537C97.6861 22.6431 96.573 23.2047 95.4592 23.7624C94.3545 24.3445 93.2534 24.9341 92.1677 25.5617C92.0258 25.6452 91.8837 25.7285 91.7418 25.8118C90.8009 26.3629 89.8605 26.917 88.9664 27.5676C89.5054 27.2452 90.0562 26.9537 90.6083 26.6647L91.8186 26.0221L92.2603 25.7873C93.3639 25.2092 94.4615 24.6158 95.5731 24.0603C96.6758 23.4807 97.7864 22.9233 98.9043 22.3871C99.4628 22.1189 100.022 21.8504 100.591 21.6158C101.154 21.3567 101.73 21.1504 102.321 20.9864ZM76.0559 56.4537C74.8839 57.2229 73.7814 58.1151 72.6616 58.9638C71.5543 59.8351 70.4293 60.6699 69.2469 61.3838C68.1377 62.0558 66.9651 62.5946 65.7375 62.9245C65.6595 62.9452 65.582 62.968 65.5034 62.9873L65.7448 62.9386L66.4954 62.7864C66.8209 62.6927 67.1443 62.5845 67.4702 62.4826C67.7893 62.36 68.1022 62.2149 68.4193 62.0819C68.7314 61.9346 69.0351 61.7657 69.344 61.6085C70.5606 60.9325 71.6957 60.0864 72.8171 59.2351C73.9273 58.3612 75.0268 57.4774 76.1647 56.669C76.4457 56.4596 76.7408 56.2807 77.0286 56.0847C77.3175 55.8913 77.6222 55.7339 77.9179 55.5551C78.2169 55.3836 78.528 55.2447 78.8339 55.0873C79.1469 54.9546 79.4664 54.8393 79.783 54.7085C79.4593 54.8047 79.1309 54.8927 78.8094 55.0069C78.4948 55.1417 78.1725 55.2593 77.8622 55.4094C77.5573 55.5739 77.2443 55.7217 76.9464 55.9026C76.65 56.0873 76.3453 56.2558 76.0559 56.4537ZM119.634 33.4963C119.634 33.4963 119.775 34.5567 119.634 34.9647C119.494 35.3727 119.213 35.6174 119.213 36.216C119.213 36.8137 118.58 37.4033 118.58 37.4033L117.947 38.0652C117.947 38.0652 116.682 37.657 116.12 37.4033C115.558 37.1497 114.433 37.2492 114.012 36.216C113.59 35.1821 113.496 33.3603 112.723 32.4629C111.95 31.5654 107.897 29.2539 107.053 28.9278C106.21 28.6012 104.453 26.3986 103.82 26.4257C103.188 26.4525 101.431 25.5826 100.728 25.7727C100.3 25.8887 97.3192 26.3979 95.0524 26.7784C94.9565 27.8036 94.7359 29.028 94.4522 30.2631C94.2014 30.492 93.9438 30.713 93.6811 30.9261C92.6643 31.7494 91.5803 32.4709 90.4735 33.1379C89.3651 33.8031 88.2264 34.4043 87.0653 34.9412C85.9026 35.4683 84.7184 35.9584 83.4843 36.216C84.7267 36.0127 85.9311 35.572 87.1147 35.0939C88.2973 34.6059 89.4602 34.052 90.5976 33.4306C91.7343 32.8071 92.851 32.1276 93.9158 31.3325C94.0307 31.2469 94.1445 31.1589 94.258 31.0699C93.6114 33.6492 92.745 36.0913 92.223 36.6506C91.3192 37.6196 92.7276 39.2273 92.2044 41.2621C91.2466 41.192 90.2832 41.2278 89.3262 41.3158C88.107 41.4327 86.8968 41.6687 85.7045 41.9871C85.1078 42.1461 84.5155 42.324 83.9268 42.5184C83.3447 42.7111 82.7424 42.9403 82.1915 43.133L80.6262 43.7556C81.2317 43.5151 83.4912 43.2843 84.0716 43.064C84.6454 42.8471 85.2237 42.645 85.8063 42.4617C86.9714 42.0958 88.1568 41.8092 89.3558 41.64C90.2836 41.513 91.2205 41.4349 92.1564 41.4586C91.6553 43.3706 92.3828 43.0021 92.1898 44.8196C91.9924 46.6784 91.169 45.4619 90.9815 46.7673C90.9168 47.2165 90.9872 47.7304 91.1167 48.2377C91.0048 48.109 90.8846 47.9897 90.7693 47.8647C90.5218 47.5779 90.2228 47.3643 89.9436 47.1193C89.3475 46.7005 88.7122 46.3332 88.0368 46.1224C86.6943 45.657 85.2969 45.5245 83.9159 45.4537C82.5308 45.381 79.4416 45.7184 78.061 45.7544L79.7966 46.1146C81.1664 46.0247 82.5381 45.9254 83.9062 45.9424C85.2712 45.9584 86.6463 46.0363 87.9596 46.4358C88.6216 46.6144 89.2411 46.9445 89.8318 47.3269C90.1074 47.5534 90.4054 47.749 90.6547 48.0198C90.7828 48.1494 90.9182 48.2704 91.0411 48.4076L91.2255 48.6254C91.4824 49.4487 91.8529 50.2043 92.0124 50.5751C92.2934 51.2278 92.1997 54.7085 92.0124 55.5784C91.8249 56.4492 88.0413 49.8139 82.9808 49.1614C82.5819 49.1104 82.1964 49.0791 81.822 49.0619C84.2339 49.66 87.0357 51.3316 90.677 55.0349C90.7305 55.285 90.7762 55.557 90.8116 55.8469C87.1699 52.7134 81.183 51.4671 76.0522 51.6899L75.9055 51.7581C80.9276 51.5384 87.2451 53.4257 90.8351 56.6461C91.1765 61.0052 89.2494 68.3553 78.7989 69.965C78.5495 70.0033 77.6025 70.1906 76.4876 70.416C76.4276 70.4487 76.3674 70.4826 76.3084 70.5151C76.2065 70.5151 76.1049 70.5151 76.0026 70.5141C75.6446 70.5864 75.2777 70.6614 74.9175 70.7346L75.2414 71.0852C75.5769 70.9109 75.9328 70.7212 76.3084 70.5151C82.4201 70.5057 87.3614 67.9158 87.7654 67.4857C86.639 69.3537 84.06 72.3259 82.8296 75.9224C80.972 75.276 78.735 73.9116 76.1376 71.8302L76.0567 71.9654L75.9778 72.0979C76.2272 72.2979 76.4726 72.4901 76.7157 72.677C79.0123 74.4443 81.0221 75.6309 82.7282 76.2292C82.5251 76.8699 82.365 77.5294 82.2663 78.205C81.8023 78.3304 81.2783 78.3287 80.7211 78.2327C79.4224 79.8214 77.4643 83.9469 76.7959 85.0581C76.4291 85.6692 75.2023 86.7803 73.9721 87.7897C75.3245 87.0977 76.7856 86.2052 77.5804 85.3847C77.5804 85.3847 79.9761 87.4236 81.7449 88.6786C81.4689 88.8269 81.1944 88.9796 80.9232 89.1389C79.4516 90.0137 78.0414 91.0137 76.6776 92.1061L76.8436 92.3699C78.1648 91.2454 79.5478 90.1998 80.9884 89.2831C81.2761 89.1021 81.5674 88.9283 81.8611 88.7607C81.9675 88.8349 82.0719 88.9069 82.1726 88.9744C83.953 90.1711 85.921 94.4134 86.6708 95.1749C87.0855 95.596 88.5912 97.7504 90.0124 99.6638C89.6763 100.138 89.3112 100.584 88.9374 101.017C88.561 101.452 88.171 101.872 87.7644 102.266C87.5615 102.463 87.3547 102.655 87.1419 102.833C86.9351 103.001 86.6959 103.196 86.5024 103.255L86.5577 103.575C86.8792 103.454 87.0657 103.25 87.2897 103.061C87.5025 102.866 87.705 102.66 87.9032 102.45C88.2999 102.03 88.6764 101.588 89.0388 101.13C89.3949 100.679 89.742 100.216 90.059 99.7269C90.8919 100.847 91.6895 101.873 92.2172 102.414C92.0755 102.414 91.9336 102.418 91.7909 102.428C91.6482 102.44 91.5051 102.462 91.3622 102.498C91.2904 102.517 91.2197 102.546 91.1481 102.571C91.0802 102.615 91.0056 102.637 90.9432 102.701C90.8023 102.796 90.7176 103.01 90.7143 103.199C90.718 103.294 90.7208 103.392 90.7498 103.474C90.7719 103.561 90.795 103.648 90.8276 103.723C91.0812 104.337 91.4339 104.849 91.7167 105.407C91.8612 105.683 91.9948 105.964 92.0941 106.255C92.1926 106.544 92.2593 106.851 92.22 107.128C92.2016 107.266 92.1592 107.396 92.0911 107.51C92.0179 107.621 91.9279 107.721 91.8193 107.802C91.6042 107.965 91.3455 108.075 91.0776 108.14C90.5471 108.3 89.9917 108.32 89.4466 108.241C88.9005 108.157 88.366 107.957 87.8682 107.668C87.7922 107.623 87.7178 107.573 87.6426 107.525C87.2899 106.659 86.8291 104.147 86.0147 103.768C85.0776 103.333 84.7526 103.116 84.7526 103.116C84.7526 103.116 77.112 97.0243 76.7959 96.8066C76.4803 96.589 75.7999 93.652 75.1441 92.7817C74.7219 92.2217 72.6359 90.8066 71.2014 89.8685C71.1091 89.9231 71.0461 89.9534 71.0205 89.9534C70.7394 89.9534 69.2402 88.5393 68.4904 87.3426C67.7406 86.1459 68.0216 81.7949 68.0216 81.7949C68.0216 81.7949 69.8066 74.3365 70.9682 70.1617C69.8968 68.8005 68.0812 66.4713 66.4202 64.2348L68.9657 69.1221C67.9818 71.08 59.8686 71.6784 58.7197 72.0591C57.7974 72.3645 55.5357 67.9431 54.6053 65.9033C54.8299 68.0054 56.2978 71.4137 58.4163 72.9019C58.5574 73.148 58.1684 73.8066 57.3744 74.6097C55.572 72.6796 53.9319 69.6191 53.0984 67.3718L52.8401 67.5003C53.519 69.3311 55.1901 72.6857 57.1601 74.82C55.8446 76.0793 53.6092 77.6226 50.8808 78.5045C48.0237 75.7461 46.8032 71.0857 46.7899 71.0337L46.7138 71.0866C46.727 71.1398 47.1655 75.7981 49.982 78.6403C49.413 78.8104 49.3926 78.9181 48.7873 79.021C43.0238 80 42.1644 81.1424 38.3149 82.2029C38.0481 82.2765 37.8002 82.3624 37.5667 82.4574C36.6951 81.5798 36.4354 80.2283 36.2295 79.144C36.1202 78.5671 36.0259 78.0692 35.8585 77.7414L35.6169 77.9073C35.761 78.1906 35.8506 78.6645 35.955 79.2144C36.1522 80.2537 36.4182 81.633 37.273 82.5857C36.6464 82.8791 36.1455 83.2459 35.742 83.6431C35.5279 83.6094 35.3086 83.5805 35.0856 83.5523C33.8603 83.396 32.4711 83.2196 31.7242 82.1283C30.6415 80.5471 32.1519 78.4036 33.1849 77.0774C34.8622 77.064 36.4388 76.1341 36.6983 75.7577C36.9795 75.3497 46.3741 69.2852 46.5148 68.9043C46.6553 68.5236 47.5924 69.013 48.2953 68.9043C48.9077 68.8094 52.1189 66.1949 54.2055 64.8767C54.4157 64.1396 60.108 59.469 62.7241 58.3264C63.1974 56.5506 71.6287 51.4511 74.6234 49.8549C75.0343 49.4523 75.8649 49.0094 75.7999 48.6713C75.7062 48.1817 75.7062 47.3659 76.2215 46.9852C76.4114 46.845 76.4163 46.4464 76.3476 45.9991C76.4909 45.8365 76.6322 45.6711 76.7771 45.5104C77.9599 44.2066 79.2124 42.9847 80.5279 41.8612C81.8451 40.7421 83.2243 39.7109 84.6941 38.88C85.4289 38.4666 86.1866 38.1024 86.971 37.8356C87.7545 37.5692 88.5675 37.396 89.3882 37.4083C88.5683 37.3687 87.7466 37.5153 86.952 37.7565C86.1562 37.9993 85.3845 38.3405 84.6345 38.7325C83.1341 39.5196 81.7192 40.512 80.3649 41.5958C79.0113 42.6836 77.7184 43.873 76.4911 45.1501C76.4035 45.2424 76.3184 45.3377 76.231 45.4304C76.0859 44.8433 75.8935 44.3198 75.8935 44.3198C75.8935 44.3198 75.6199 42.5565 75.3101 40.4814C76.6441 38.6151 77.9574 36.7426 79.4378 35.0464C80.357 33.9963 81.3464 33.0172 82.4331 32.212C82.1664 32.3301 81.9018 32.4466 81.6422 32.5607C80.791 33.2318 79.9946 33.9984 79.2434 34.8106C77.7999 36.3763 76.5045 38.0998 75.2108 39.8137C75.1701 39.5379 75.1293 39.261 75.0888 38.9831C75.0888 38.9831 75.0493 38.496 74.9793 38.2316C74.8312 37.2071 74.4034 23.913 74.4069 23.8217L74.1257 23.808C74.1124 24.1812 73.8864 30.6911 74.2597 35.2313C74.2103 35.2461 74.1602 35.2617 74.1099 35.2772C72.8457 35.6664 71.2652 36.1899 69.9547 36.624C69.1267 35.4678 66.2179 31.5384 66.2179 31.5384C66.2179 31.5384 69.2402 28.9278 68.9657 28.6829C68.6921 28.4381 72.8248 22.564 73.2697 22.564L75.6543 20.8501C74.8016 20.9243 73.4591 21.6534 73.4591 21.6534C73.2259 21.5763 72.9598 20.5327 72.8929 20.1847C72.8264 19.837 72.5935 19.7984 72.4271 19.5666C72.2607 19.3349 71.8942 19.7212 71.7612 19.5666C71.628 19.412 71.4284 18.5233 71.4284 18.5233C71.4284 18.5233 70.7957 18.6005 70.6958 18.5233C70.5961 18.4457 70.363 17.248 70.1633 17.0163C69.9634 16.784 69.1644 17.3254 68.7651 17.0163C68.3655 16.7071 69.2311 13.6927 68.9317 13.1904C68.6321 12.688 68.3321 12.5718 68.2322 12.1083C68.1326 11.6445 68.4655 8.43721 68.4322 7.4325C68.4322 7.4325 67.8663 6.38921 67.8663 6.27297C67.8663 6.15744 70.4629 1.09485 73.0597 0.747089C75.6564 0.399089 79.3184 0.901677 80.8828 2.79509C82.4475 4.68897 82.3812 8.12827 82.1814 8.93932C82.0082 9.64238 82.3352 12.488 82.7285 13.5892C83.5364 12.7763 84.2055 12.2393 84.5483 12.2981C85.1868 12.7838 86.2958 14.8405 86.4363 14.8949C86.5768 14.949 80.2982 18.2125 80.2982 18.2125C80.2982 18.2125 87.6077 14.7318 88.3575 14.4596C89.1071 14.1878 92.9495 14.0245 93.7457 14.2421C94.4467 14.4334 96.9235 18.0741 99.423 19.1706C98.6625 19.4061 97.9068 19.6605 97.1532 19.9245C96.3034 20.2304 95.4553 20.5436 94.6182 20.8974C94.1998 21.0746 93.7824 21.2553 93.3687 21.449C93.1632 21.5497 92.9589 21.6534 92.7568 21.7643C92.6562 21.8205 92.5557 21.8772 92.4578 21.9405C92.3662 22.0094 92.2528 22.0664 92.1997 22.1831C92.2634 22.0777 92.3791 22.0391 92.4768 21.985C92.5784 21.9341 92.6818 21.8883 92.7855 21.844C92.9941 21.7565 93.2049 21.6763 93.4164 21.5989C93.8374 21.4367 94.261 21.2833 94.6863 21.1351L97.2351 20.236L99.78 19.3158L99.7916 19.3116C100.011 19.3847 100.229 19.4386 100.446 19.4636C103.258 19.7901 105.858 20.6876 107.475 21.585C109.092 22.4824 114.855 30.233 115.839 30.7226C115.839 30.7226 118.229 31.2934 118.58 31.9054C118.932 32.517 119.634 33.4963 119.634 33.4963ZM31.504 82.3316C30.3454 80.6393 31.7781 78.4304 32.8168 77.0659C32.7989 77.0643 32.7807 77.0645 32.7622 77.0629C30.9349 76.8996 23.0629 74.3706 21.7275 72.8205C20.3923 71.2704 19.9001 73.4732 20.4624 74.289C21.0247 75.105 20.3556 75.105 20.2332 75.5127C20.1109 75.9207 20.6031 76.1654 20.6031 76.1654L21.2355 76.0024L21.7978 77.5525L21.4465 78.3033L21.7978 79.1026H22.9928L23.9767 80.5711L23.6252 81.2238L24.1174 81.7132H24.8905L27.8422 85.2217L27.4909 86.0372L27.9829 86.5269H28.8263L29.5995 87.3426L29.5293 88.4033L30.0211 88.9744L30.7944 88.5664L31.708 88.9744C31.708 88.9744 33.7461 87.4243 33.957 87.0979C34.0958 86.8838 34.2718 85.2953 35.4681 83.9306C35.3319 83.912 35.1941 83.8944 35.055 83.8763C33.7751 83.7132 32.3244 83.5287 31.504 82.3316ZM87.7958 67.4358C87.7987 67.4461 87.7857 67.4638 87.7654 67.4857L87.7958 67.4358Z" fill="#0B0B09"/>
</g>
</g>
<defs>
<clipPath id="clip0_2_3">
<rect width="1440" height="1764" fill="white" transform="translate(-965 -896)"/>
</clipPath>
<clipPath id="clip1_2_3">
<rect width="120" height="120" fill="white"/>
</clipPath>
</defs>
</svg>
